<svg xmlns="http://www.w3.org/2000/svg" width="50" height="66" fill="none"><path fill="#9CCBDC" fill-rule="evenodd" d="M32.0313 13.9484c-.0834.0998-.0627.1207.1205.1207.145 0 .2213.0454.2213.1318 0 .0823.0554.1193.1477.0985.0812-.0182.2521.0176.3798.0798.37.1801.2683-.0073-.1258-.2319-.5402-.3077-.632-.3322-.7435-.1989Zm6.3732 4.7329c-.062.0995.2247.491.3621.4945.058.0014.1055.0325.1055.0691 0 .0366.1524.2345.3387.4397.1864.2053.3673.4109.4023.457l.231.3044c.092.1213.2244.305.294.4081.0697.1031.1692.2318.2212.286.052.0541.1618.2286.2439.3876s.1789.3082.215.3317c.0363.0234.266.438.5108.9213.2555.5047.4581.819.476.7384.0171-.0771-.0471-.2923-.1426-.4782-.0957-.1859-.1738-.396-.1738-.467 0-.0709-.0316-.129-.0702-.129-.0385 0-.124-.1037-.1899-.2303-.0658-.1266-.1486-.268-.1839-.3141-.0354-.0461-.2493-.3703-.4755-.7206-.4188-.6484-.5033-.7615-1.0192-1.3656-.6479-.7585-1.1001-1.2058-1.1454-1.133Zm-26.8908.7274c-.2076.2189-.5598.624-.7826.9004s-.4675.5787-.5438.6717c-.0763.0931-.2526.3381-.3917.5445-.1392.2063-.2741.394-.3.4171-.1181.105-.663 1.0408-.627 1.0765.0535.0532.0068.1156.8061-1.0765.3862-.5759.7231-1.0658.7489-1.0889.0522-.0465.7692-.9151.8643-1.047.0332-.046.1997-.2439.3699-.4397.4163-.4789.3248-.4524-.1441.0419ZM8.127 25.5779c-.0965.0726-.1288.1653-.0912.2623.035.0904.0248.1297-.0255.0989-.0515-.0316-.067.0514-.0403.2166.0304.1883.0525.2181.0742.1002.017-.0921.0855-.3088.1519-.4816.0664-.1727.1117-.3129.1004-.3114-.0112.0014-.0875.0532-.1695.115Zm32.149 3.6083c.0269.0698.0947.1269.1506.1269.056 0 .1833.0754.2829.1675.0996.0922.223.1675.2741.1675.0511 0 .0695.0377.0408.0838-.0287.0461.007.0838.0794.0838.0723 0 .1316.0376.1316.0837 0 .0461.0665.0824.1477.0806.107-.0023.0601-.0773-.1701-.2722-.4465-.3781-1.0009-.6868-.937-.5216Zm1.3201.8962c.0285.0777.0064.1595-.049.1819-.0554.0224-.0108.0437.099.0473.1535.0051.19.0435.1577.1661-.0327.1244.0108.1672.1979.1944.1485.0216.2564-.0073.2828-.0757.0235-.0608.0087-.1107-.0329-.1107s-.1271-.047-.1899-.1047c-.3911-.3586-.5173-.4396-.4656-.2986Zm1.3248 1.5371c-.0897.1074-.0718.1663.1084.3559.2285.2404.5379.7168.6218.9575.0276.0791.122.1664.2099.1941.0878.0277.1597.0854.1597.1284 0 .1009.3971.1021.4597.0015.0262-.0422.0104-.0892-.0353-.1047-.0457-.0154-.1088-.1565-.1403-.3135-.0606-.302-.0264-.313.4131-.1336.1154.0471.1366.0295.0949-.0784-.0297-.0766-.1645-.1612-.2997-.188-.1353-.0269-.4291-.2123-.6531-.4121-.2239-.1997-.4304-.3401-.4589-.3119-.0284.0282-.0757-.0105-.1049-.0863-.0668-.1728-.235-.1768-.3753-.0089Zm-36.4777.1007c-.126.0775-.2731.2461-.3267.3746-.0537.1285-.15.2336-.2139.2336-.064 0-.1164.0377-.1164.0838 0 .046-.0592.0837-.1316.0837-.0723 0-.108.0377-.0794.0838.0287.046-.026.0837-.1216.0837s-.1738.0352-.1738.0783c0 .0957.362.1425.7596.0981.2448-.0273.2665-.0442.1266-.0987-.1362-.0532-.1148-.067.1105-.0718.1665-.0035.2579-.0402.2263-.091-.0292-.0468-.0887-.0633-.1323-.0366-.138.0848.125-.4066.323-.6034.3468-.3444.1845-.4858-.2503-.2181Zm.7779.7757c0 .2361-.036.3351-.1218.3351-.0763 0-.1096-.0625-.0892-.1676.0178-.0921-.0008-.1675-.0414-.1675s-.098.0754-.1275.1675c-.0294.0922-.0828.1676-.1187.1676-.0761 0-.2623.3803-.2583.5274.0016.0554.0741.016.1613-.0877.1849-.2199.258-.2377.258-.0628 0 .0697.075.1256.1688.1256.109 0 .1688-.0559.1688-.1577 0-.0875.0754-.1773.1691-.2017.1128-.0292.152-.0883.1176-.1772-.032-.0827-.0069-.1335.066-.1335.0646 0 .1175-.0753.1175-.1675 0-.1198-.0562-.1675-.1979-.1675-.1105 0-.1749-.037-.1457-.0838.0287-.046.0119-.0837-.0372-.0837-.0492 0-.0894.1508-.0894.335Zm38.1934.9517c.0245.2701.096.5637.1587.6525.112.1586.1148.1584.1591-.0093a.2245.2245 0 0 1 .2217-.171c.2031 0 .2063-.0164.0878-.4397-.0754-.2697-.122-.3141-.3301-.3141-.1331 0-.2646-.0471-.2921-.1047-.0274-.0576-.0297.1162-.0051.3863Zm-40.8304-.0634c-.0583.0707-.1726.1909-.2538.267-.0812.0761-.1477.1716-.1477.2123 0 .0407-.1172.2208-.2603.4002-.2757.3454-.1586.4791.1364.1557.0855-.0938.2053-.1515.2663-.1283.0609.0232.1108-.0079.1108-.0693 0-.0613.114-.2537.2532-.4276s.2532-.3447.2532-.3795c0-.1319-.2564-.1537-.3581-.0305Zm1.3076.3259c-.058.0654-.1055.1494-.1055.1868 0 .0372-.0963.2084-.214.3804-.206.3007-.2076.3126-.0422.3126.0945 0 .1718-.0324.1718-.0721s.0873-.1998.194-.3559c.2625-.3841.3314-.5779.2043-.5739-.0566.0017-.1503.0567-.2084.1221Zm38.4131-.0675c-.1789.0348-.1791.0372-.0301.4283.13.3412.185.3969.4156.4198l.2657.0266-.1393-.3197c-.0765-.1759-.1585-.3857-.182-.4662-.0237-.0806-.067-.1415-.0964-.1352a22.0365 22.0365 0 0 1-.2335.0464ZM3.1105 35.7031c-.2968.4328-.769 1.4845-.9087 2.0244-.1601.6182-.1617.8632-.01 1.5528.0659.2995.1625.8837.2148 1.2983.0522.4146.185 1.2438.2953 1.8427.1101.5989.2783 1.5788.3736 2.1777.0953.5989.2098 1.315.2543 1.5914.1483.9207.3402 1.6235.7146 2.6171.4802 1.2743.729 2.1635.729 2.6051 0 .3276.0124.3471.1688.264.1704-.0905.2347-.4522.0956-.5376-.0402-.0247-.0923-.2133-.1157-.4193-.0235-.2059-.1209-.5234-.2166-.7056-.2485-.4731-.6944-1.8163-.7826-2.3579-.0414-.2534-.1318-.8753-.201-1.382-.1302-.9552-.344-2.0049-.4394-2.1582-.0302-.0485-.0653-.4684-.0782-.9333-.0142-.5207-.1225-1.3383-.282-2.1296-.1425-.7065-.259-1.3429-.259-1.4144 0-.0713-.095-.2171-.211-.3238-.2806-.2581-.2787-.7127.006-1.3973.1194-.287.2297-.5804.2452-.6521.0386-.178.2251-.6136.5101-1.191.272-.5511.1994-.8125-.1031-.3714Zm41.9515-.1291c.022.0806.129.5047.2379.9423l.1978.7957.0244-.7309c.0189-.569-.0066-.7777-.1152-.9422-.1609-.2436-.4061-.2898-.3449-.0649Zm1.7353.1536c-.0195.3636.0077 1.119.0609 1.6891.0515.5523.0734.6073.2419.6073.1412 0 .2074.0746.2783.3141.3851 1.2981.664 2.8307.7469 4.104.0437.6697.0829.8586.1786.8586.0972 0 .1122.0828.0723.3979-.0277.2188-.0741.7488-.1032 1.1778-.0505.746-.045.782.1263.8264.0985.0256.1791.0763.1791.1126 0 .0364.076.0464.1688.0224.1572-.0408.1687-.1139.168-1.0601-.0008-1.0053-.169-2.8471-.3414-3.7384-.2567-1.327-.5688-2.3595-1.3772-4.5575-.3293-.8949-.3859-1.0021-.3993-.7542Zm-.0175 3.2336c-.0408.2958-.0182.3913.1251.5285l.1748.1676-.0503-.4543c-.0651-.5893-.1856-.706-.2496-.2418ZM5.2938 52.3079c-.0838.1824-.0617.2833.1564.7119.1397.2747.2915.4995.3372.4995.1064 0 .1068.0036-.0457-.4255-.071-.1996-.1112-.4089-.0895-.4651.0418-.1079-.1262-.5316-.2111-.5327-.0274-.0003-.0937.095-.1474.2119Zm.6234 1.4556c-.0526.0844.4468 1.0736.7436 1.4726.24.3228.2287.0571-.0165-.3879-.5389-.9779-.6709-1.1749-.727-1.0847Zm37.9075 1.177c-.1668.2779-.2764.5038-.2435.5021.0726-.0039.6226-.932.5782-.976-.0173-.0171-.168.1961-.3347.4739Zm-36.7995.7055c-.064.1654-.0201.2357.9453 1.5167.6167.8185 1.6662 1.9684 1.7964 1.9684.036 0 .0435-.0566.0168-.1257-.0268-.0691-.1079-.1256-.1803-.1256-.0723 0-.1064-.0251-.0756-.0556.0308-.0306-.0515-.1531-.183-.2722-.4462-.4047-2.1165-2.6105-2.222-2.9345-.0312-.0959-.0518-.0899-.0976.0285Zm36.1037.3232c-.1743.2419-.4117.5716-.5276.7329l-.2108.2931.2974-.2967c.1636-.1631.3597-.4081.4357-.5444.076-.1363.1996-.3326.2747-.4362.0751-.1036.1164-.1885.092-.1885-.0246 0-.1872.1979-.3614.4398Zm-15.6696 6.626c-.0499.2592.1521.6992.3755.8179.2551.1355.2627.0398.0318-.3999-.3322-.6327-.3604-.6616-.4073-.418Zm-5.2169.2256c-.051.0945-.0754.2359-.0541.3141.0316.1168.0494.1085.0996-.0463.0335-.1036.0945-.1884.1355-.1884.041 0 .0746-.0566.0746-.1257 0-.1811-.1473-.1544-.2556.0463Z" clip-rule="evenodd"/><path fill="#000" fill-rule="evenodd" d="M19.2912.5628c.0018.242.2341.8195.522 1.2976.1871.3106.3195.618.2944.6831-.0253.0651-.1624.1439-.3047.1748-.3824.0834-.3152.2605.1419.3744.4897.122 1.2578.5467 1.3721.7586.0483.0896.085.9658.0865 2.0665.0029 2.1306.1576 3.3737.5032 4.0458.1126.219.1998.551.209.7957.0234.6232.4529 2.3541.7339 2.9584.3334.7168.3253 1.1622-.0423 2.3195-.1611.5067-.3176 1.1475-.3479 1.4239-.0303.2764-.0925.6207-.1382.7651-.0653.2067-.0464.3581.089.7116.1537.4017.1629.5214.0861 1.1347-.0973.7767-.0269 1.2319.287 1.855.1565.3105.208.5841.2489 1.3232.062 1.1194.0853 1.0857-1.0451 1.508-1.3412.5008-2.3439.706-3.7131.7599-1.3654.0537-1.8677-.008-3.2186-.3946-2.0527-.5875-3.1084-.1043-2.6554 1.2154.0316.0922-.0377-.0209-.154-.2512-.1163-.2304-.236-.5987-.266-.8185-.03-.2199-.0844-.4182-.121-.4406-.0366-.0224-.1455.0589-.2421.1807-.298.376-.2091 1.0966.1888 1.5307.1708.1862-1.3535-.8892-2.2212-1.5672-.5387-.4209-1.1795-1.0467-1.1806-1.153-.0014-.1175-.3636-.4543-.4887-.4543-.133 0-.9095-.9386-1.1277-1.363-.5563-1.0821-.6613-2.3046-.288-3.3542.2532-.712.8006-1.5556 1.2827-1.9767.4-.3494.4671-.5499.191-.5706-.1157-.0086-.3744.1834-.7522.5582-.4342.431-.6585.7439-.9122 1.2727-.4509.9399-.5528 1.4277-.5032 2.4073.0593 1.1706.5058 2.3114 1.3335 3.407l.256.3387-.287.6245c-.2727.5934-.4896 1.3623-.609 2.1585-.0526.3509-.059.3572-.2172.2151-.209-.1877-.5698-.0786-.7298.2206-.185.3456-.0876 1.4523.1795 2.0401.2724.5994.2858.8062.052.8062-.5981 0-1.0794.5186-1.309 1.4103-.1462.5679-.1151.7285.0906.4682.0982-.1242.0944-.0891-.0162.152-.1407.3067-.1396.3179.0492.5173.1062.1121.1659.2474.1328.3006-.0337.0541.0395.2002.1658.331.205.2123.2847.2353.8533.2463.3449.0066.627-.0219.627-.0633 0-.1177-.1884-.2441-.4646-.3115-.139-.0339-.3397-.1535-.4459-.2657-.1115-.118-.2467-.1837-.32-.1558-.1047.0398-.1172-.0068-.0717-.2645.0303-.172.1082-.3968.1732-.4995.182-.2882 1.2979-.7475 1.2979-.5343 0 .051.076.0928.1688.0928.3033 0 .1776-.1782-.2532-.3588-.2321-.0973-.422-.2096-.422-.2495 0-.1335.3576-.8993.4199-.8993.0338 0 .1712.3298.305.7329.1492.4491.3175.792.4345.8855.1051.084.191.2025.191.2635 0 .1542 1.1812 1.1334 1.3673 1.1334.2224 0 .1934-.0964-.2364-.7876-.2137-.3436-.3643-.6636-.3346-.7112.0297-.0476-.021-.1608-.1125-.2517-.2091-.2075-.306-.5473-.5163-1.8093-.2146-1.2879-.2167-2.605-.0057-3.6016.0878-.4146.1931-.8401.2341-.9457.0738-.1898.0773-.1887.313.1047.131.1631.2762.2966.3225.2966.0464 0 .2986.1945.5604.4322.2619.2377.7438.6323 1.071.877.7814.5841 2.6503 1.7061 2.8417 1.7061.0828 0 .1505.0328.1505.0727 0 .0818 1.5277.6811 1.7361.6811.1038 0 .1221-.0543.081-.2403-.044-.1986-.009-.2771.2026-.4538.5023-.4194 1.8493-.4096 4.0871.0296l1.3079.2566.6508-.2983c.3579-.1642.8431-.4159 1.0781-.5594.2351-.1435.6053-.3133.8226-.3774.6463-.1904.7139-.4162.3219-1.0755-.2081-.35-.3353-.3637-1.5946-.1711-.7283.1114-2.0199.1732-1.9343.0925.0194-.0181.2061-.0553.415-.0826.8076-.1055 2.5803-.3031 2.7189-.3031.1299 0 .14-.0713.0939-.6655-.0474-.6093-.0325-.7044.1757-1.1269.2626-.5325.5873-.8324 1.208-1.1156.498-.2272 1.3208-.2834 2.3658-.1616.4733.0552.612.0475.612-.034 0-.0579.0877-.2219.1948-.3645.1072-.1425.2828-.4664.3904-.7198.3481-.8198.9052-1.8707 1.3063-2.4642.2155-.3189.3787-.6186.3628-.6661-.0172-.051-.3711-.088-.8673-.0905-.6932-.0036-.8969-.0357-1.176-.1852-.5084-.2724-.8417-.6693-1.1756-1.3996-.3606-.7889-.3909-1.2807-.1178-1.9106l.1836-.4237.5971.0611c.3283.0335.7328.0611.8986.0613.6478.0007 1.4287-.6372 1.4287-1.1673 0-.1722.093-.3544.2894-.5673.1786-.1935.3269-.4689.3876-.72.1462-.6047-.0325-1.4165-.3118-1.4165-.0553 0-.2427-.172-.4163-.3822-.3574-.4328-.5679-.5578-1.18-.7005-.4273-.0995-.4945-.163-.8739-.8266-.0409-.0717-.2837-.1144-.7146-.1257-.5479-.0143-.666.0067-.7363.1313-.046.0816-.1175.1276-.1587.1023-.1635-.1002-.2738.3291-.227.8837.0589.6973-.0984 1.4263-.2648 1.2272-.0968-.1157-.1315-.1152-.3425.005-.2297.1309-.2339.1469-.1952.7459.0358.553.0196.6387-.1675.8857-.2825.373-.3319.5358-.23.7576.1073.2339.6274.5979.7481.5238.1018-.0624.1133.4831.0208.9832l-.0584.316-.4354-.5673c-.6164-.803-.7582-1.1863-.6234-1.6849.2498-.9248.1989-1.4606-.1939-2.04-.3275-.483-.5618-1.2179-.5646-1.7705-.004-.8027-.142-1.6769-.4128-2.614-.1365-.4725-.2908-1.1737-.3428-1.5583-.1134-.8363-.3984-2.0382-.5552-2.341-.062-.1198-.2983-.4402-.5251-.7119-.2268-.2718-.5191-.6908-.6494-.9314-.1304-.2404-.2657-.4197-.3007-.3982-.0912.056.0313.5256.2452.9402.101.1959.1469.356.1021.356-.1136 0-.8279-.8843-1.0269-1.2714-.0904-.176-.2208-.32-.2894-.32-.0687 0-.1246.0283-.1244.0628ZM47.65 12.9925c-.3006.1087-.8211.191-1.477.2336-.9585.0623-1.0594.0867-1.8818.4557-1.1617.5213-2.2014.8218-2.9615.856-.3428.0153-.7606.0721-.9284.1261-.4242.1362-1.2539.5554-1.2891.6513-.0342.0931-1.3034.8476-1.4259.8476-.1514 0-.7442.4313-.8841.6432-.0799.1208-.1873.1884-.2574.1617-.0696-.0265-.1203.0047-.1203.074 0 .0708-.1465.1567-.3588.2103-.8286.2092-1.5767.4497-2.1311.6851-.4483.1902-.804.2696-1.4744.3287-1.0773.0952-1.3908.1736-2.1731.5438-.7336.3472-.9611.6178-1.2864 1.5306-.1548.4345-.3821.853-.6413 1.1803-.4344.5487-.4515.7141-.0442.4263.3264-.2307 1.2142-.631 1.6524-.7451.1857-.0484.7274-.1447 1.2036-.2138.9745-.1418 1.1623-.2171 4.1982-1.683 2.6055-1.2581 2.5817-1.2473 2.7659-1.2607.0889-.0066.1865-.048.2171-.0922.0305-.0441.2285-.1793.44-.3005.2114-.1211.6102-.388.8862-.5931.5125-.3808 2.1335-1.2306 2.3474-1.2306.0652 0 .185.1037.2665.2303.0813.1266.3495.4942.5957.8166 1.2199 1.5975 1.4427 3.204.6593 4.7548-.2913.5766-1.1307 1.7365-1.2566 1.7365-.0546 0-.2007.1131-.3247.2513-.1242.1382-.1993.2513-.1671.2513.1661 0-.6768.7382-2.1783 1.9077l-.5595.4359.1224-.3525c.1489-.4292.0828-.9257-.1182-.8865-.0742.0144-.2145.2329-.3128.4868-.2103.5438-.3483.8009-.5895 1.0981-.0974.1203-.2311.2966-.297.3918-.0659.0952-.1798.1933-.2532.218-.0734.0246-.2285.1069-.3445.1827-.1916.1253-.1955.1253-.0422.0008.3389-.2751.8862-.8254.8862-.8909 0-.037.0607-.1275.135-.2011.1785-.1772.2474-.7275.1205-.9628-.0556-.1031-.2739-.2633-.4851-.3559-.4901-.2152-.8538-.1637-1.7539.2484-1.3668.6258-2.2435 1.4385-3.3724 3.1259-.8177 1.2223-1.5465 1.7652-2.9732 2.2146-.8781.2767-2.6269.5795-3.3607.582l-.5908.0021.9484.9105c1.5337 1.4726 2.4611 2.0982 3.4482 2.3261.2279.0527.9081.1186 1.5116.1466.6035.028 1.0307.0779.9495.1111-.273.1112-.1656.3033.211.3771.5686.1115.5954.224.6342 2.6617.0184 1.1517-.0005 2.8155-.0422 3.6974-.0843 1.7893-.1432 1.9833-.6313 2.0809-.4886.0977-.5726.1355-.5726.2579 0 .1014.3713.1201 2.3844.1206 1.3115.0004 2.6361.0242 2.9438.053l.5595.0525.1693-.4509c.0932-.248.2353-.6851.3159-.9713.2461-.8733-.0087-1.0331-.3965-.2486-.4968 1.0053-.8785 1.1874-2.3763 1.1338-.7498-.0269-.8453-.0487-.99-.2261-.2777-.3404-.3359-.7837-.312-2.3743l.023-1.5335.897.0122c1.1364.0154 1.4475.1399 1.6081.6437.0612.1921.1641.3492.2285.3492.0936 0 .1239-.2658.1505-1.3192.0184-.7256.0007-1.3192-.0394-1.3192-.04 0-.1634.192-.2741.4267-.297.629-.3758.6622-1.5766.6622h-1.0362v-1.756c0-1.976-.0158-1.9294.6546-1.9294.4436 0 1.7579.826 2.3606 1.4834.3137.3422.467.455.5314.3911.0621-.0616.0694-.4261.0233-1.162l-.0672-1.0722-.3376-.0344c-.1857-.0189-1.1581-.0605-2.161-.0924l-1.8233-.0579-.4977-.4134c-.6924-.5749-3.3653-3.2184-3.3098-3.2733.025-.0248.5729-.1208 1.2177-.2134 1.4836-.2129 2.7009-.5003 3.5949-.8488.3852-.1501.7639-.2779.8415-.284.0778-.006.3626-.1603.6331-.3428.5144-.3472 1.3117-.7723 1.7789-.9486.1509-.0569.2743-.1331.2743-.1692 0-.0361.2042-.1799.4537-.3196.654-.3663 2.0448-1.4298 2.5819-1.9744.2538-.2573.5126-.4678.5752-.4678.0626 0 .2134-.1174.335-.2609l.2213-.2609.2398.9938c.1393.5771.2619 1.3694.2922 1.8896.0516.8849.0501.8952-.1279.8489-.2171-.0563-.22-.0478-.3386.9774-.0886.7674-.2354 1.3418-.4848 1.8972-.0651.1452-.1185.2915-.1185.3251 0 .0337-.1924.3949-.4276.8029-.5976 1.0362-.4709 1.1528.4042.372l.4274-.3813.4943.5123c.6439.6673.8939.7716 1.6758.6989.572-.0532.6118-.0459.6554.1196.0255.0969.1073.1763.1817.1763.1966 0 .0864-.8424-.1793-1.3694-.1126-.2235-.1853-.4254-.1617-.449.0578-.0573.5592.3014.5592.4002 0 .0429.0759.078.1688.078.1427 0 .1688-.0558.1688-.3616 0-.6708-.2305-1.2339-.6832-1.6695-.2643-.2542-.488-.3979-.6198-.3979-.1135 0-.2262-.0318-.2504-.0707-.0242-.039.0857-.3671.2443-.7292.3654-.8339.4447-1.3986.2585-1.8407-.0757-.1798-.1837-.3559-.2399-.3914-.1527-.0963-.5194-.0802-.628.0276-.071.0705-.1099.0113-.1518-.2303-.1779-1.0243-.5123-1.983-.8409-2.4106l-.2062-.2683.5395-.8587c.9435-1.5018 1.3541-3.0012 1.1529-4.2103-.2012-1.2091-1.0171-2.6213-1.8387-3.1822l-.3788-.2586.6305-.272c.3467-.1496.8885-.4127 1.204-.5848l.5735-.3129.3765.1866c.2309.1144.5971.2023.9467.2272.6629.047 1.5149-.041 1.5149-.1566 0-.1603-.4373-.248-.8585-.172-.3493.0631-.4452.0508-.6014-.0766-.273-.2226-.1104-.4167.5397-.6445 1.0934-.3829 1.2459-.4506 1.4606-.6481.2039-.1874.3003-.4687.1559-.4547-.0348.0033-.2722.0816-.5275.1739ZM24.9035 23.4438c-.9046.2166-1.7303 1.1491-1.7303 1.9543 0 .4636.295 1.07.6518 1.3398.4851.3668.8689.4405 2.2179.4257 1.0253-.0112 1.3608-.0493 2.0679-.2348 1.0078-.2645 2.9119-1.2215 2.9119-1.4636 0-.0371-.2934-.1707-.652-.297-.5026-.177-.7439-.2188-1.0529-.1826-.3937.0464-.4064.0404-.7141-.3322-.1723-.2087-.4867-.4947-.6985-.6357-.2119-.1409-.4284-.3088-.481-.373-.1875-.2286-1.8514-.3612-2.5207-.2009Zm8.6136 1.8976c-.9505.1465-1.0927.1942-2.5129.8418-1.8433.8406-3.535 1.2046-5.7631 1.24l-1.3504.0214-1.7092.8569c-1.6866.8454-1.8296.9524-1.6446 1.23.1189.1783.6262.3785 1.3544.5345 1.3765.2948 2.4345.3731 5.0801.3753 2.428.0021 2.6081-.0083 3.1701-.1837.9912-.3095 1.3047-.5993 2.4821-2.2946.6703-.9653 1.9378-2.2523 2.4253-2.4626.1952-.0841.3353-.1842.3116-.2224-.0633-.1016-.9773-.0702-1.8434.0634Zm-18.1872 3.6058c-.1217.1536-.1749.3429-.1749.6221 0 .3605.0316.4273.3099.6549.351.2871.6841.3727 2.1587.5543.5688.0701 1.243.1659 1.4983.2129.6857.1261 5.1486.2102 5.1486.097 0-.1015-.1813-.1289-2.0257-.307-2.0582-.1987-2.7163-.4238-2.7691-.9472-.0207-.2063.0257-.2958.2321-.4472.3326-.244.3273-.3901-.0162-.4473-.6923-.1152-2.1181-.2132-3.1046-.2132-1.0686 0-1.0844.0028-1.2571.2207Zm28.1173 1.5452c-.1479.3878-.4169.9432-.5978 1.2344-.318.5115-.3747.8526-.1418.8526.0561 0 .1941.0979.3067.2174.369.3921.8514.621 1.1923.5661.2044-.0328.32-.1024.3482-.2094.0232-.088.0929-.1496.155-.1368.0688.0143.1104-.0499.1067-.1651-.0309-.9676-.0412-1.019-.2527-1.2685l-.2165-.2553-.3382.2119c-.4098.2568-.5105.2351-.5383-.1156-.019-.2393.0029-.2687.201-.2698.4174-.0025.441-.0777.2347-.7481l-.1904-.6187-.2689.7049ZM.28 33.5069c-.2535.1466-.3434.3997-.2345.6607.2523.6044 1.4362.557 1.4362-.0575 0-.0952-.1343-.2901-.2983-.4331-.307-.2676-.6297-.3283-.9034-.1701Zm45.49.4707c-.0215.0372-.0845.2077-.1402.3789-.0833.2564-.1504.3206-.3809.3635-.1538.0286-1.4406.0392-2.8594.0237l-2.5797-.0284-.279-.262c-.3678-.3455-.4899-.2872-.4899.2337 0 .2302-.0422.7733-.0936 1.2069-.0516.4335-.0691.8521-.039.93.0502.1298.0677.128.2078-.0203.0841-.089.2207-.3838.3036-.6549.0828-.2712.2516-.6053.3751-.7424.2107-.234.2723-.2521.9931-.2929.4227-.024.869-.0185.9917.0121l.2234.0556-.0251 3.8294c-.0209 3.2021-.0458 3.8699-.1517 4.0776-.1219.2392-.2189.286-.8711.4207-.1345.0277-.2232.0934-.204.1508.025.0745.5229.1076 1.8694.1242 1.717.0211 1.8334.013 1.8067-.1257-.021-.1087-.1358-.1604-.4308-.1942-.2787-.0318-.4693-.1127-.621-.2633-.2045-.2029-.2244-.2934-.3007-1.3779-.0946-1.3443-.0579-6.5165.047-6.6193.039-.0381.492-.0642 1.0067-.0577.8077.01.9513.0329 1.0487.1675.062.0857.1691.2223.2379.3034.0687.0811.125.21.125.2862 0 .0762.0276.1112.0613.0777.0338-.0335.1225.1205.1972.3421.0805.2389.1938.4141.2783.4303.1299.0251.1405-.0969.1194-1.382-.0226-1.3713-.0281-1.4101-.2052-1.4352-.1-.0141-.1995.0047-.221.0419Zm-41.714.5283c-.0287.046-.1357.0837-.2378.0837-.1997 0-.4347.2876-.3484.4263.0289.0463.1157.0781.1928.0707.31-.0303.4062.017.565.2778.1582.2593.166.4411.166 3.8319 0 3.8296-.0165 3.9893-.4317 4.1771-.115.0521-.3363.0946-.4917.0946-.2402 0-.2808.0282-.2709.1885l.0118.1884 2.1526-.0445c1.981-.0411 2.1849-.0593 2.5545-.2277.5039-.2298 1.206-.8748 1.4336-1.3171.2164-.4205.2923-1.3341.152-1.831-.1592-.5646-.6479-1.1495-1.1854-1.4193-.44-.2208-.6295-.3953-.4293-.3953.0501 0 .2491-.1413.4422-.3141.9955-.8907.8744-2.2945-.2727-3.16-.5782-.4365-.5535-.431-2.2934-.5063-.7312-.0317-1.3294-.0913-1.3294-.1325 0-.1025-.315-.0952-.3798.0088Zm9.2648.2818c-.3832.1914-.5116.2967-.4733.3882.1393.3336.1051.6152-.1688 1.3862-1.0869 3.06-2.151 5.8728-2.4275 6.4165-.1168.2296-.2525.3429-.5416.4525-.2383.0903-.3763.1911-.361.2635.0136.0645.0532.1153.088.1129.035-.0025.6521-.0045 1.3716-.0045.7196 0 1.3083-.0325 1.3083-.0723s-.1725-.1378-.3834-.2177c-.2107-.0799-.4455-.2395-.5215-.3547-.1215-.184-.1253-.2717-.0317-.7218.0587-.2818.2308-.8717.3825-1.3109l.2757-.7985 1.3554-.023 1.3555-.023.1722.5256c.3275.9996.6026 2.0268.6026 2.2501 0 .1933-.0641.2501-.4642.4112-.2554.1029-.4643.2203-.4643.261 0 .0407.7597.074 1.6881.074 1.3841 0 1.6881-.0209 1.6881-.1163 0-.0673-.1285-.1402-.3049-.1731-.3871-.072-.6288-.3135-.9543-.9535-.3199-.6289-1.4417-4.2177-1.4417-4.6122 0-.1584-.055-.3482-.1221-.4218-.0672-.0736-.3024-.7833-.5227-1.577-.2204-.7938-.4408-1.4389-.4899-1.4336-.049.0053-.3258.1277-.6151.2722Zm12.3286-.0924c-.0817.1313.1224.2576.4962.3073.6236.0828.6147.0224.6147 4.1937 0 4.2522.0309 4.0744-.739 4.2679-.2772.0698-.4848.1684-.4848.2304 0 .0866.5734.1083 2.8486.1081l2.8486-.0003.252-.9001c.3021-1.0786.3009-1.061.0727-1.0933-.1509-.0214-.232.0779-.4788.5863-.4006.825-.5898.9321-1.724.9751-.6873.0261-.9072.0056-1.0687-.0993-.4056-.2638-.4295-.5028-.4268-4.2605.0025-3.4005.0072-3.5003.1773-3.7272.1426-.1904.257-.2408.6239-.275.4227-.0394.6583-.2062.406-.2874-.2353-.0758-3.372-.0993-3.4179-.0257Zm-6.5275.0586c0 .0443.1548.1219.344.1724.5915.1582.5891.1389.5618 4.3735-.0131 2.0391-.0534 3.7684-.0896 3.8428-.0849.1744-.4215.3254-.7255.3254-.2175 0-.5052.2029-.4148.2926.0424.0421 5.5605.0693 5.5957.0275.0503-.0597.5522-1.6261.5522-1.7232 0-.0576-.092-.1045-.2044-.1045-.16 0-.2264.0656-.3047.3012-.0551.1657-.2575.4637-.4496.6622-.401.4142-.7446.5022-1.7428.4462-.5014-.0281-.6258-.0668-.8132-.2527-.1903-.189-.2309-.3227-.2905-.9605-.1062-1.1341-.0768-6.2961.0377-6.6437.1139-.3454.3846-.5018.8717-.5034.4212-.0015.5469-.1357.2367-.2527-.2879-.1087-3.1647-.1114-3.1647-.0031Zm-13.5677.3893c-.0792.035-.1055.4525-.1055 1.6721v1.6254l.1899.002c.1044.0011.3635.0236.5758.05.5834.0727 1.002-.0814 1.3307-.4899.28-.3481.2817-.3552.2532-1.122-.0331-.8946-.1371-1.0928-.7818-1.4906-.296-.1827-.523-.2525-.878-.2701-.2633-.013-.5263-.0026-.5843.0231Zm7.7205.9258c-.0233.0386-.1436.3898-.2674.7805-.1629.5136-.197.7197-.1234.744.066.0219.0416.0814-.0695.1691-.1644.13-.6979 1.5623-.6979 1.8736 0 .1322.1111.1464 1.1394.1464.9871 0 1.1394-.0178 1.1394-.1336 0-.18-.2616-1.0701-.33-1.1227-.0771-.0594-.3681-1.0058-.3863-1.2564-.0208-.2865-.2293-1.1147-.3024-1.2009-.0327-.0386-.0785-.0386-.1019 0Zm33.4469 1.4522c0 .1842.038.335.0844.335.0464 0 .0844-.1508.0844-.335 0-.1843-.038-.3351-.0844-.3351-.0464 0-.0844.1508-.0844.3351ZM5.5047 39.2475c-.093.5594-.0627 3.1319.041 3.4756.1669.5528.332.6611 1.0077.6611.88 0 1.2319-.2346 1.632-1.0888.3691-.7882.2764-2.01-.2035-2.6786-.271-.3779-.7953-.5804-1.6603-.6413l-.7626-.0537-.0543.3257Zm34.7778 6.5083c-.0835.2161-.2464 1.3703-.2156 1.5286.0225.1163.0946.0329.2584-.299.1943-.3936.2763-.4754.5673-.5649.1871-.0576.5307-.1047.7635-.1047h.4233v2.7601c0 2.0096-.0282 2.8217-.104 2.9867-.0664.1445-.2578.2961-.5275.418l-.4235.1912 1.0339.0215c.5687.0119 1.1732.0235 1.3435.0258.4097.0055.4519-.164.0716-.2885-.5858-.1919-.589-.2091-.6184-3.326-.0249-2.6434-.0183-2.7892.1266-2.7963.4907-.0238 1.021.0371 1.2228.1407.1275.0655.3318.2884.4541.4955.1223.207.2429.3764.2681.3764.0251 0 .0232-.1979-.0043-.4397-.067-.5888.0667-.7894.4088-.6132.1295.0666.282.246.339.3986.057.1526.3605.8791.6745 1.6144l.571 1.3371-.0163 1.0081c-.0168 1.0393-.1078 1.5837-.2826 1.6909-.0552.0338-.2346.0832-.3987.1096-.164.0265-.2888.0852-.2771.1305.0308.1203 2.7409.1096 2.7814-.0109.0183-.0544-.119-.1132-.3297-.1413-.6515-.0868-.7779-.4476-.7291-2.0828l.0287-.9617.5336-1.0826c.8531-1.7305.9518-1.855 1.6539-2.0826.3179-.1032-.0031-.1938-.8581-.2423l-.8652-.049v.2059c0 .1613.0438.2059.202.2059.4021 0 .3521.196-.5079 1.9892-.1602.334-.3234.6073-.3625.6073-.0678 0-.8794-1.9699-.9871-2.3956-.0372-.1473-.0159-.2009.08-.2009.166 0 .2396-.1163.1766-.2791-.0723-.187-1.6342-.1283-1.7435.0656-.1081.1915-.2182.0872-.1703-.1614.047-.2444.0128-.2548-.3044-.092-.178.0913-.65.1215-2.006.1283-1.6815.0085-1.7813.0001-1.9285-.1613-.1805-.1979-.263-.2133-.3223-.0601Zm-5.1201.163c-.6341.2088-1.1038.9371-1.0994 1.705.0037.6593.369 1.1322 1.7655 2.2856.5195.4291.6804.7527.68 1.3664-.0004.5855-.2243.9467-.7226 1.1654-.3147.1381-.4292.1514-.658.0765-.3831-.1254-.7651-.543-1.019-1.1136-.2879-.6469-.4195-.6324-.3412.0376.0832.7106.2329 1.1086.4284 1.139.0883.0137.3021.085.4751.1584.5624.2387 1.617.0053 2.0177-.4467.3239-.3652.5181-.9023.5251-1.4517.0095-.7607-.2117-1.1533-.9361-1.6614-1.2749-.8941-1.714-1.4916-1.5877-2.1602.1252-.6618.562-.9698 1.1341-.7997.3804.1131.5343.2686.808.8164l.2053.4107.0031-.6282c.0018-.3455-.0247-.6696-.0588-.7203-.0571-.0848-.1918-.1152-1.0327-.2336-.1624-.0229-.4265.0016-.5868.0544Zm-34.7489.0829c-.069.111.06.2303.2503.2316.434.003.4347.0058.488 2.3617.0603 2.6517.115 2.9001.781 3.5437.266.2571.5702.4606.7826.5235.4734.1403 1.4914.1302 1.8497-.0184.161-.0667.294-.095.2955-.0628.0016.0322.0729-.0246.1584-.1263.0855-.1018.1724-.1681.1932-.1476.0206.0205.1765-.2571.3463-.6171.3863-.8189.477-1.4236.4798-3.1965.0028-1.8036.0953-2.1494.6022-2.2523.1568-.0319.2852-.1067.2852-.1662 0-.0822-.2691-.1123-1.1183-.1253-.6152-.0094-1.1184.0129-1.1184.0496 0 .0366.1523.127.3384.2009.2135.0848.3556.2024.385.3189.0257.1014.0348 1.1872.0204 2.4127-.0255 2.159-.0323 2.2363-.2163 2.483-.1044.1401-.1899.2704-.1899.2895 0 .0191-.1301.1757-.2891.348-.2303.2495-.3667.3219-.67.3558-.8814.0987-1.4998-.2833-1.8392-1.1362-.1739-.4365-.1918-.6416-.2213-2.5271-.0357-2.2788-.0005-2.5119.38-2.514.2494-.0015.5141-.1258.4349-.2044-.0731-.0725-2.364-.0961-2.4084-.0247Zm7.2296.0628c0 .1199.0563.1675.198.1675.4394 0 .478.1618.47 1.975-.004.9176-.0338 2.1532-.066 2.7457l-.0588 1.0772-.273.242c-.15.1331-.3671.242-.4825.242-.1153 0-.2097.0377-.2097.0838 0 .0506.3619.0837.9166.0837.5042 0 1.093.024 1.3083.0533.4647.0631.536-.0768.1101-.2163-.1548-.0507-.3922-.2068-.5275-.3469-.2443-.253-.2464-.2639-.3018-1.5685-.0308-.7226-.0572-1.8415-.0587-2.4864l-.0028-1.1726.1853.2448c.1019.1347.9353 1.2466 1.852 2.4709 2.0118 2.6866 2.4074 3.1892 2.5105 3.1892.0474 0 .0888-1.2563.1032-3.1322.0226-2.9439.0337-3.1429.1848-3.3084.0917-.1005.264-.1763.4009-.1763.1572 0 .2401-.0434.2401-.1256 0-.1055-.1793-.1252-1.1183-.123-1.0018.0024-1.1013.0155-.9545.1257.0901.0676.2279.1229.3062.1229.2546 0 .3456.2306.4208 1.0646.0897.9965.0924 3.3546.0041 3.5784-.0553.14-.1297.0833-.55-.4188-.6288-.7513-2.3616-3.0909-2.8552-3.8554l-.3839-.5943-.5277-.0548c-.7893-.0818-.8405-.075-.8405.1128Zm13.8421-.0711c0 .03.1338.1329.2974.2287s.3196.2317.3469.3021c.0272.0703-.2805 1.0039-.6838 2.0747a816.925 816.925 0 0 0-.8658 2.3054c-.073.1973-.1598.3754-.1931.3959-.059.0361-.7213-1.719-1.432-3.7951-.3681-1.0752-.3678-1.2731.0018-1.2731.2112 0 .4185-.0873.4185-.1765 0-.0421-1.0327-.0747-2.3633-.0747-1.3069 0-2.3632.0329-2.3632.0737 0 .0407.1703.1165.3784.1685.279.0697.3908.1438.4257.2821.026.1032.0361 1.383.0224 2.8441-.0275 2.9549-.0007 2.8242-.6213 3.0359-.1792.0612-.3402.1538-.3578.2059-.0229.0683.3602.0882 1.3828.0716 1.0397-.017 1.4238-.0508 1.4496-.1278.0217-.0645-.0435-.1047-.1703-.1047-.3199 0-.7322-.1694-.8233-.3383-.0491-.0911-.0826-1.2753-.0826-2.9198 0-3.1347-.0467-2.94.7049-2.94.5015 0 .6271.0566.7811.3521.1222.2346 1.8985 5.0393 2.1612 5.846.0675.2073.1752.3769.2393.3769.0743 0 .3032-.516.6317-1.4238.5129-1.4175 1.6324-4.2871 1.8662-4.7836.2128-.4517.8758-.6063 1.1777-.2746.1512.1663.1608.3401.1608 2.9248v2.7481l-.2046.2161c-.1405.1483-.2927.2161-.4854.2161-.1932 0-.2807.0392-.2807.1257 0 .1076.284.128 1.9835.1419 1.0909.0089 2.1068.0184 2.2578.0209.2643.0045.2808-.0152.4539-.5443.3833-1.172.3303-1.435-.1286-.639-.4262.7393-.5628.8046-1.7238.8252-.5746.0101-.6837-.012-.844-.1711-.1709-.1696-.1862-.2784-.2141-1.5204l-.0299-1.3379h.6364c.8578 0 1.0377.0803 1.2428.5551.0926.2145.1872.3713.2101.3485.0229-.0227.0504-.4893.0612-1.0366.0178-.9132.0065-.9978-.138-1.0255-.1034-.0197-.1435.0086-.117.0825.0576.1613-.1611.5538-.3365.6042-.1558.0445-.9118.0812-1.3092.0634l-.2321-.0104v-1.1985c0-1.5267-.0051-1.5183.8936-1.4659.3673.0213.7516.0911.8542.1551.1025.0639.287.2999.4102.5245.1232.2245.2505.3767.2829.338.0324-.0386.0377-.3441.0117-.6788l-.0471-.6085-2.8486-.0196c-1.5668-.0109-2.8486.0048-2.8486.0348Zm6.8693.0026c-.0495.0795.3125.3198.482.3198.0886 0 .1587.0953.1922.2617.0897.4453.0588 5.1156-.0362 5.4548-.0802.287-.1134.3141-.3854.3141-.238 0-.292.0294-.2693.1466.025.1298.1618.1492 1.1942.1699 1.2172.0244 1.3694-.0328.7599-.2855-.1641-.0681-.3231-.2109-.3694-.332-.0448-.1169-.0815-.7189-.0815-1.3378v-1.1252H30.5945l.5485 1.0679c.6418 1.2496.9239 1.6152 1.4369 1.8616.7374.3542 1.3183.1943.7204-.1983-.3659-.2403-.9764-1.0989-1.6094-2.2635l-.3551-.6533.4035-.3422c.6838-.58.8965-1.3824.5595-2.1106-.1924-.4157-.3661-.5714-.8994-.8063-.3695-.1627-.5719-.1853-1.7142-.1916-.7123-.004-1.3112.0185-1.3307.0499Zm9.4206.0894c-.0002.1108.0696.1466.2849.1466.1568 0 .33.0538.3851.1196.0737.0882.0931.8406.0736 2.8726-.0239 2.5008-.0406 2.7744-.1809 2.9868-.1199.1815-.199.2228-.3526.1845-.1278-.0318-.2492.0015-.3421.0936-.0792.0787-.1104.1512-.0694.1613.041.0101.6538.0342 1.3617.0536 1.054.0289 1.2872.0144 1.2872-.08 0-.1186-.0507-.1453-.4331-.2279-.4569-.0986-.4953-.3481-.4953-3.2129 0-2.497.0065-2.6017.1749-2.8142.0962-.1214.2291-.2207.2954-.2207s.1205-.0471.1205-.1047c.0001-.0782-.2672-.1047-1.0549-.1047-.9483 0-1.0549.0148-1.055.1465Zm-7.8285.2021c-.0787.0315-.1056.4103-.1056 1.4905v1.4484l.2373.0471c.3182.0631.8329-.0596 1.0436-.2489.4657-.4182.6029-1.4376.2798-2.0795-.2784-.5534-.9535-.8585-1.4551-.6576ZM5.7155 55.24c-.1493.325-.1192.5878.1223 1.0667.3231.6409.8229 1.2695 1.1888 1.4953.285.1758.3002.201.1353.2243-.1984.028-.7004.5383-.7004.7118 0 .3247.9678 1.0248 1.8183 1.3155.5777.1973 1.9798.2295 1.9798.0453 0-.0551-.2564-.3438-.5697-.6418-.8727-.8298-1.533-1.574-2.0815-2.346-.2744-.3863-.5996-.8344-.7226-.9956s-.3466-.4722-.4968-.691c-.306-.4456-.526-.5058-.6735-.1845Zm37.965.5509c-.7733 1.1204-1.7813 2.3513-2.6729 3.264-.4318.442-.785.8629-.785.9353 0 .2002.7285.33 1.2839.2288.5749-.1048 1.9455-.7738 2.1728-1.0605.1112-.1404.1572-.2858.1253-.3968-.0536-.1869-.447-.5901-.637-.653-.076-.0251-.0035-.1341.2158-.3245.5587-.4852.7174-.6845 1.0202-1.2821.3459-.6823.3724-1.0366.097-1.2934-.1074-.1001-.2172-.1821-.244-.1821-.0267 0-.286.344-.5761.7643Zm-33.1239 1.9143c-.3831.4201.0051 1.5027.884 2.4651.2756.3017.5634.6432.6398.759.0764.1156.1823.1857.2352.1557.053-.03.0683-.024.0343.0134-.0341.0373.0039.1176.0844.1784.123.0928.1025.0945-.1279.0109-.1509-.0548-.2743-.1291-.2743-.165 0-.0361-.0407-.0655-.0904-.0655-.0498 0-.1475-.0565-.2171-.1256-.1622-.1611-.3678-.1619-.3678-.0016 0 .0682.095.1477.2111.1766.116.0289.211.0862.211.1272 0 .0411.0569.0747.1266.0747.0696 0 .1266.0344.1266.0765 0 .1131 2.3717 1.554 3.2495 1.9741.9287.4445 2.2932.8973 3.4347 1.1398 1.0599.2252 2.0622.1924 2.7689-.0907.4272-.1711.6105-.2285.7825-.2454.0358-.0037.1065-.0965.157-.2067.0506-.11.1848-.2421.2984-.2935.1135-.0513.1847-.1282.1581-.1709-.0266-.0427-.0066-.1032.0444-.1345.1772-.1087.4164-.8085.4164-1.2181 0-.6408-.2069-.529-.456.2464-.1974.6144-.471 1.0189-.8788 1.2994-.957.6581-2.3015.7063-3.8336.1375-.4952-.1839-1.2828-.8086-1.3723-1.0885-.0278-.0871-.1294-.1702-.2255-.1847-.2425-.0363-.7851-.9552-1.0435-1.7668-.1689-.5306-.2085-.8294-.2085-1.5722 0-.5043-.029-.917-.0643-.917-.0355 0-.1346.2429-.2202.5398-.2735.9478-.1548 1.8861.3362 2.658.112.1761.1746.3197.1393.3193-.1036-.0012-.6688-.9325-.7838-1.2913-.101-.3154-.0759-1.6151.0415-2.142.033-.1485.0053-.1242-.0956.0837-.0934.1927-.1547.5831-.1788 1.1386-.0363.8409-.0349.8487.2746 1.442.3107.5958.5193.8857 1.2164 1.6907l.37.4272-.7498-.3915c-1.5373-.8027-2.8345-1.8505-3.3861-2.7352-.4601-.7382-.6985-1.3297-.6054-1.5025.1261-.2337.0875-.5355-.0983-.7699-.2219-.2799-.7312-.309-.9629-.0549Zm28.3911-.1134c-.2347.0674-.3575.4088-.2991.8314.0486.3512.0157.4628-.3334 1.1336-.4423.8499-.9363 1.3828-1.9567 2.111-.6825.4869-2.3578 1.4834-2.4941 1.4834-.1076 0 .3908-.5732.5045-.5803.1818-.0113.6493-.6301.9208-1.2188.2366-.5131.7127-2.2497.7127-2.5998 0-.0682-.0512-.124-.1138-.124-.0788 0-.18.3362-.3283 1.089-.2186 1.1099-.5949 2.0709-.9839 2.5126-.141.16-.1162.0711.1049-.3771.1591-.3226.3474-.7807.4185-1.0179.25-.8358.2591-2.4998.0135-2.4998-.0441 0-.125.4523-.1797 1.0051-.0547.5528-.1592 1.1936-.2322 1.4239-.1774.5592-.7844 1.6293-.9622 1.6962-.0783.0294-.3891.3005-.6908.6025-.6177.6182-1.0522.827-2.2022 1.0582-1.6979.3414-2.8453-.1224-3.4619-1.3995-.1418-.2934-.3401-.6009-.4408-.6832-.1828-.1493-.1826-.1496.1123-.1256.217.0176.2954-.0093.2954-.1016 0-.1677-.7008-.161-.8085.0078-.1335.2092-.0909.3426.091.2853.131-.0412.1688-.0151.1688.1169 0 .4098.3599 1.1054.8072 1.56.2524.2565.4589.4451.4589.4191 0-.026.15.0286.3333.1214.567.2871 1.3935.3832 2.3439.2725.8489-.0988 2.5575-.5769 3.5644-.9974.7225-.3017 2.2682-1.1289 2.7912-1.4936.2302-.1606.4569-.292.5039-.292.0468 0 .0852-.0566.0852-.1257 0-.0691-.0474-.126-.1055-.1265-.058-.0005.1224-.221.4009-.49 1.5031-1.4517 2.1936-2.7402 1.7514-3.2687-.1488-.1777-.5384-.2805-.7896-.2084Zm-10.4374 1.1287c-1.3696.2291-3.227 1.967-3.227 3.0193 0 .2573.1409.1755.3352-.1943.6745-1.284 1.8792-2.2618 2.9406-2.3866l.4379-.0515v.2569c0 .425.5203.7221.9669.5521.0752-.0287.1914-.1572.2583-.2856.3522-.676-.477-1.117-1.7119-.9103Zm-8.1646.0883c-.4092.2435-.4841.5866-.2048.9389.1342.1693.2497.2207.496.2207.3642 0 .4654-.0901.5519-.4909.0597-.2768.0666-.2806.4107-.2264.4228.0666 1.1012.3656 1.5921.7018.7848.5374 1.241 1.0938 1.5407 1.8791.0836.2188.179.3979.212.3979.1246 0-.0994-.9706-.3144-1.3625-.337-.6145-1.1632-1.3321-2.0171-1.7522-.6574-.3233-.8065-.3637-1.4164-.3841-.4203-.0141-.7466.0158-.8507.0777Zm-9.5797 1.5843c0 .116.2147.3291.3316.3291.128 0 .1121-.158-.0302-.2991-.1422-.1412-.3014-.157-.3014-.03Zm11.5843 1.6639c-.1972.2273-.3587.4743-.3587.5487 0 .0744-.0848.2817-.1886.4605-.1049.181-.1559.3554-.115.3935.0404.0376.0897.0234.1096-.0316.0199-.0549.1476-.2392.2839-.4093.1362-.1702.2477-.3541.2477-.4086 0-.0546.1128-.2473.2508-.4283.2435-.3192.3218-.5384.1923-.5383-.0348 0-.2247.1861-.422.4134Zm5.0431-.0638c0 .083.5826 1.3197.7405 1.5718.0127.0203.0821-.0216.1541-.0932.1185-.1175.0953-.1975-.2418-.8325-.3338-.6291-.6528-.9447-.6528-.6461Zm-8.7031 1.0222c-.1034.0517-.2037.1408-.2228.1982-.058.1745.4466.6077.7078.6077.3181 0 1.8035-.4233 1.8035-.514 0-.0398-.202-.0723-.4489-.0723-.2468 0-.7194-.0706-1.0502-.1568-.4685-.122-.6429-.1359-.7894-.0628Zm11.8272.0597c-.2545.0897-.6723.1862-.9284.2145-.768.085-.7532.1687.0492.279.4132.0568.8749.1601 1.026.2295.2628.1209.2876.1165.5758-.1016.3794-.2872.4327-.4252.2439-.6322-.1836-.2015-.3694-.1994-.9665.0108Z" clip-rule="evenodd"/><path fill="#B59F69" fill-rule="evenodd" d="M23.2229 4.2755c-.3591.4234-.3924.9286-.0996 1.511.0708.1408.1715.4695.2239.7303.06.2993.2613.7526.5454 1.2282.2475.4146.6297 1.093.8491 1.5076.2195.4146.4596.7982.5336.8525.1179.0865.1428.0348.2018-.4188.1179-.9066.0914-1.1179-.2227-1.7742-.3531-.7378-.3461-.7284-1.1394-1.542-.6086-.624-.619-.6418-.579-1.0008.0535-.481.2969-.7998.636-.8333.2207-.0218.3321.0408.6696.377.497.4948.7306.9756.9829 2.0241.1888.7847.196.7983.253.4728.2443-1.3955.6531-2.2245 1.3244-2.686.2821-.1942.3637-.2148.5373-.1363.2742.124.4464.402.5157.833.0406.253.0278.356-.0442.356-.181 0-1.0718.9478-1.4565 1.5496-.3781.5914-.7136 1.3548-.6315 1.4363.0943.0935 1.0706.1365 1.0706.047 0-.0491.0488-.1392.1085-.2.3486-.3559.8477-1.278 1.0347-1.9115.1155-.3916.2664-.9038.3353-1.1381.1567-.5334.1573-.7351.0029-1.0313-.4504-.8643-1.6122-.5576-2.376.6272-.1531.2375-.3034.5309-.334.652-.0307.121-.086.2201-.123.2201-.037 0-.1869-.2536-.333-.5636-.4256-.9023-1.1138-1.4457-1.8317-1.4462-.383-.0004-.462.0308-.6541.2574Zm-1.78 6.7474a50.0175 50.0175 0 0 1-.6752.1242c-.7793.1392-1.3038.3245-1.787.6312-.2429.1541-.4827.2802-.533.2802-.0503 0-.1857.0613-.3011.1364-.3142.2043-.7336.0997-1.2199-.3045-.3514-.292-.4642-.3409-.7347-.3188l-.3196.0263.3264.1608c.3866.1904.6434.57.6439.9516.0004.364-.1851.4224-.4799.1513-.6371-.5863-1.5791.1631-1.1647.9266.0837.1543.1961.2805.2497.2805.0536 0 .2565.0763.4509.1695.2667.1279.3535.2179.3535.3668 0 .2178-.4177.6724-1.0466 1.1389-.2174.1612-.4479.3403-.5123.3978-.2074.1855-.2839.113-.2839-.2687 0-.5462-.3933-1.2681-.899-1.65-.4738-.3578-.7166-.4276-1.5246-.4377-.5078-.0065-.6752.0317-1.1444.261-.3214.1569-.793.498-1.1355.8211-.3222.3038-.8041.7021-1.071.8851-.72.4934-.6564.5664.3182.3656.2437-.0502.2595-.0361.3552.3191.121.4491.4166.6697.897.6697.8012 0 1.0182-1.0402.2945-1.4116-.242-.1241-.251-.1441-.123-.2712.2061-.2044.7949-.3208 1.2677-.2504.5381.0802.8382.3605 1.1945 1.116.4556.9661.4592.9371-.1818 1.4623-.7052.5777-2.695 2.682-2.5664 2.7141.0232.0058-.0751.1235-.2183.2616-.2687.259-.8422 1.0754-1.4642 2.0846-.3046.494-.3388.5938-.2379.694.1396.1384.3647.0732.4326-.1252.0504-.1473.8045-1.3664.8903-1.4391.027-.023.163-.2115.302-.4188.139-.2073.2737-.3957.2992-.4188.0255-.023.2203-.268.4328-.5444.8979-1.1676 3.7375-3.9785 4.0192-3.9785.0356 0 .1195-.0754.1864-.1675.067-.0922.1703-.1676.2297-.1676.0593 0 .1079-.0295.1079-.0656 0-.0362.1126-.1318.2502-.2124.1376-.0806.299-.1945.3587-.2531.0597-.0585.2795-.1985.4884-.3111.2089-.1126.3988-.2261.422-.2521.0232-.0261.2207-.168.4389-.3153.2182-.1473.617-.5188.8862-.8255.8093-.922.9112-1.0119 1.2558-1.1068.6062-.167 1.808-.0586 1.808.1631 0 .0439.0486.0798.108.0798.0989 0 .2096.1147.3882.4021.0551.0885.1709.0833.6176-.028l.5498-.1371-.069-.3665c-.0622-.3303-.1822-.8243-.4213-1.7341-.0855-.3253-.1918-.3644-.7091-.2609Zm2.4508.3865c.1276.2719.2066.5927.2071.8405.0007.3751.0117.395.17.311.1416-.0752.1673-.1687.1581-.5749-.0061-.2668.0357-.5717.0927-.6776.1338-.248.0093-.3357-.4794-.3375l-.3548-.0012.2063.4397Zm6.0979-.335c.1778.2144.2062.8625.0617 1.4118-.0775.2946-.1763.6016-.2195.6821-.0882.1644.0072.1969.153.0522.1377-.1367.5294-.0176.5294.1612 0 .2567-.2301.4861-.5969.5951-.2917.0868-.3677.0857-.4254-.0059-.0527-.0838-.1318-.0375-.3187.1867-.1367.164-.405.3682-.5963.4538-.4062.1818-.3233.2916.2214.2937.5962.0021 2.4827-.7277 2.8376-1.0977.1732-.1807.3976-.2086.3976-.0497 0 .0593.071.1132.1576.1196.0867.0065.3473.1276.5791.2692.4973.3036.6604.3328.5323.0953-.2137-.3965.0283-1.4457.2523-1.094.0438.0689.0804.1629.0811.209.0007.046.1518.3266.3357.6232.1839.2968.3598.6543.3909.7946.0618.2792.2476.46.4774.4641.0812.0015.1477.0403.1477.0864s.0401.0838.089.0838c.1184 0 1.0688.6418 1.388.9374.1393.1289.314.2346.3883.2348.1646.0005.8356-.4705.8356-.5864 0-.0459.0569-.0833.1266-.0833.0696 0 .1268-.066.1272-.1466.0008-.2194.5076-.5235.8725-.5235.1728 0 .5123-.0996.7544-.2215.2422-.1218.626-.2842.8529-.3607l.4126-.1393-.4162-.265c-1.0901-.6941-2.14-.7005-3.0433-.0186-.4161.3143-.8634 1.0526-.8665 1.4309-.003.3416-.0876.3472-.476.0313-.1998-.1624-.4998-.3519-.6667-.4211-.2324-.0964-.2919-.1618-.2544-.2793.0343-.1073-.0213-.1989-.1851-.3047-.3437-.2219-.4397-.3789-.4426-.7238-.005-.5734.2854-.9885.5251-.7506.0697.0692.042.1493-.1058.3054-.1564.1652-.178.2338-.0986.3126.0795.0789.1485.051.3146-.1267.117-.1253.2505-.2278.2965-.2278.1781 0 .1771.2671-.0018.4561-.2113.2232-.1085.359.1627.2149.4696-.2494.5261-.8481.1105-1.1725-.325-.2537-.6472-.215-1.0243.1231-.1789.1604-.35.2672-.3801.2373-.0301-.0298-.0547-.2148-.0547-.4108 0-.4505.2998-.8289.7666-.9677.3156-.0938.3251-.1065.1917-.2528-.0923-.1012-.2576-.154-.4818-.154-.3017 0-.3886.0499-.7478.4297l-.4065.4296-.1997-.2138c-.3466-.3711-1.4739-.8555-2.5529-1.097-.7451-.1667-.9269-.1734-.808-.0301Zm-12.8372 1.4613c-.023.037-.0686.2452-.1014.4628-.0712.4716-.2433.6923-.6005.7702-.1923.0419-.3022.0194-.4051-.0827-.2233-.2216-.1309-.4152.191-.4002.3331.0155.3183-.1434-.0216-.2336-.1872-.0497-.2768-.0214-.4376.1382-.3242.3217-.2624.5305.3137 1.0603.2876.2646.5673.456.6307.4319.2007-.0765.6163-.7867.6705-1.1459.0708-.4686.0196-.9973-.1002-1.0363-.0538-.0176-.1166-.0016-.1395.0353Zm6.9133 1.6377c.0332.0577.2539.3599.4903.6719l.4299.5672.0584-.3159c.1039-.5617.084-.6928-.1047-.6928-.0951 0-.3301-.0754-.5223-.1676-.4105-.1968-.4311-.2005-.3516-.0628Zm-4.0174.0513c-.7388.0731-1.1988.3091-1.2468.6397-.091.6254.0611.921.5843 1.136.5105.2099 1.1676-.21 1.074-.6862-.0833-.4231.4488-.7719 1.0525-.6898.3553.0483.7305-.0611.7305-.2129 0-.0685-.4389-.1419-1.245-.2082-.2205-.0181-.6478-.0085-.9495.0214Zm12.3272.1143c-.3838.103-.505.2784-.5077.7348-.0037.613.3059.8823.9734.8469.1681-.009.8823-.5494.8785-.665-.0032-.0972-.7075-.8224-.8844-.9107-.1086-.0541-.2726-.0563-.4598-.006ZM8.3241 17.8961c-.6876.0912-1.4019.9071-1.6218 1.8528-.1306.5612.014 1.0331.4077 1.3311.2266.1715.3347.2004.5793.1548.43-.08.8823-.5746.8819-.9644-.0004-.4065-.2778-.8411-.5367-.8411-.2992 0-.4194-.1823-.2967-.4497.1563-.3405.3692-.3539.651-.0411.2394.266.2535.2701.59.17.4964-.1476.6315-.3095.5641-.6763-.0304-.1657-.1-.3466-.1546-.402-.118-.1197-.6585-.1878-1.0642-.1341Zm32.9142.012c-.2738.081-.5429.5393-.4748.8085.0818.3236.379.5451.7313.5451.2555 0 .3742-.0635.6555-.3512.3267-.3341.3542-.3455.5623-.235.1618.086.2123.1715.1938.3281-.0198.1661-.0951.2312-.3494.3016-.3951.1095-.6227.3874-.6936.8474-.0602.3901.0345.6232.3732.9194.6179.5402 1.4481-.1276 1.4456-1.1628-.0009-.3897-.3232-1.1592-.6166-1.4722-.3936-.4198-1.3047-.6835-1.8273-.5289Zm-3.0414.208c0 .1349.2786.4977 1.055 1.374.8062.9097.849.9647 1.3172 1.6895.2262.3502.4497.6823.4966.7379.0469.0557.0853.1334.0853.1727s.0665.1445.1477.2338c.0812.0894.1952.2849.2532.4346.0581.1498.1522.3947.2093.5445.1381.362.1271.3529.2758.2304.0795-.0653.1114-.1767.0817-.2841-.0953-.3436-.3191-.8048-.3904-.8048-.0398 0-.133-.1508-.2074-.3351-.0743-.1842-.1643-.335-.2-.335-.0358 0-.1091-.1054-.1628-.2342-.2215-.5308-1.499-2.2659-1.6741-2.2738-.058-.0026-.1055-.0398-.1055-.0825 0-.077-1.068-1.1786-1.1427-1.1786-.0214 0-.0389.0498-.0389.1107Zm4.0003 6.8592-.2539.2768.1794.4599c.2666.6833.3637 1.1306.4271 1.9674.0556.7342.0626.7539.2691.7539h.212l-.0514-.8795c-.0293-.5017-.1538-1.3038-.2899-1.8674l-.2385-.988-.2539.2769Zm-34.494.2897c-.3356 1.2167-.409 2.7324-.192 3.964l.1106.6282.012-1.0889c.0076-.6759.065-1.3112.151-1.6752.0765-.3224.1422-.7244.1464-.8932.006-.2543.0278-.2903.1267-.2094.1013.0829.1037.0686.0161-.0945-.0897-.1672-.078-.2128.0917-.3531.1119-.0926.1477-.1625.0843-.164-.0607-.0015-.09-.0356-.0651-.0757.025-.04-.043-.1748-.151-.2994l-.1962-.2267-.1345.4879Zm33.6482 2.0363c-.197.0789-.4838.4429-.5723.7262-.0699.2234.1913.8515.3785.9104.2135.0673.7223-.1847.9148-.4529.2413-.3364.2285-.7665-.0311-1.0446-.214-.2291-.3813-.2628-.6899-.1391Zm-33.0148.132c-.2614.1817-.4325.5425-.3817.8057.0639.3316.5039.7387.7984.7387.8198 0 .9832-.9826.2496-1.501-.295-.2084-.4175-.2165-.6663-.0434Zm29.5016.7997c-.1659.0931-.195.287-.056.3723.1319.0809.265-.0815.232-.283-.0227-.1376-.058-.1555-.176-.0893Zm-26.201.1019c-.3633.1332-.4076.1935-.2541.3458.1599.1587.5084.0551.6408-.1906.1449-.2686.0388-.3111-.3867-.1552Zm26.8129.101c0 .4164.5201.8768.9906.8768.1544 0 .3583.1134.6027.3351.254.2304.4461.335.6153.335.1354 0 .3277.0754.4273.1675.0997.0922.2405.1645.313.1609.0871-.0043.0959-.0209.0263-.0488-.058-.0233-.1055-.0957-.1055-.1609 0-.0653-.0285-.1143-.0633-.1088-.2096.0328-.2902-.0244-.2499-.1774.0287-.1089.0026-.1675-.0746-.1675-.0652 0-.1186-.0314-.1186-.0696 0-.0383-.1044-.1231-.2321-.1883-.1277-.0654-.2601-.1566-.2942-.2026-.035-.0475-.0625-.0203-.0633.0626-.0007.0806-.0367.1466-.0801.1466-.1595 0-.934-.5313-.934-.6407 0-.0622-.0665-.1137-.1477-.1144-.1263-.0011-.1293-.0131-.0211-.0825.1018-.0652.0883-.0814-.0689-.0825-.1074-.0007-.2689-.0403-.3587-.0879-.1298-.069-.1632-.0593-.1632.0474Zm-28.2533.5561c-.3827.1921-.7704.4181-.8616.5025-.0912.0843-.2279.1533-.3039.1533-.0758 0-.1579.0754-.182.1675-.0244.0921-.0968.1675-.161.1675-.0642 0-.1168.0377-.1168.0838 0 .046-.0782.0837-.1738.0837-.0955 0-.1503.0377-.1216.0838.0287.046-.0029.0837-.07.0837-.0672 0-.117.0645-.1105.1434.0065.0788-.0593.1578-.146.1756-.0984.0201-.1362-.0024-.1005-.0596.0314-.0506.0162-.0919-.0338-.0919-.0949 0-.0408.3534.0899.5864.0585.1044.0708.1001.073-.0253.0015-.0898.114-.197.278-.265.1516-.0629.4872-.3436.746-.624.3806-.4123.5201-.5096.7304-.5096.3445 0 .527-.0757.527-.2184 0-.0641.0284-.1183.0633-.1203.1296-.0073.8181-.666.6963-.6662-.0696-.0001-.4397.1571-.8224.3491Zm3.1523.1187c-.0313.0808.0198.1902.1303.279.139.1117.1684.1986.1252.3695-.0464.1834-.1046.2236-.3238.2236-.153 0-.3457-.0732-.4508-.1711l-.1836-.1712-.1064.2549c-.2185.5234.1583.9251.8675.9249.3796-.0002.7011-.2057.8978-.5741.2362-.4421-.1991-1.2685-.6681-1.2685-.1383 0-.258.0553-.2881.133Zm22.59.1657c-.3823.2274-.452.4521-.2795.9021.2079.5429 1.1107.8788 1.5965.5939.4118-.2414.4827-.5213.2615-1.0316-.2184-.5039-.3574-.5545-.3194-.1162.0269.3096.0243.3123-.3523.377-.2086.0357-.4267.0473-.4848.0258-.1836-.0685-.1145-.3397.1509-.592.2288-.2175.2402-.2502.1055-.303-.2402-.0941-.299-.0817-.6784.144ZM6.0528 31.92c-.4236.4116-.5236.5756-.351.5756a.0843.0843 0 0 0 .0844-.0838c0-.0461.0524-.0838.1164-.0838s.1602-.1051.2139-.2336c.0536-.1285.196-.2929.3163-.3653.1204-.0726.1821-.1544.1371-.182-.045-.0276-.2777.1402-.5171.3729Zm36.5262.2196c-.0437.4007-.0296.4999.0663.4634.0585-.0223.2839.1145.5007.304.2169.1894.4169.322.4445.2946.0276-.0273-.0163-.0979-.0975-.1568-.0811-.0588-.1476-.1481-.1476-.1984 0-.0502-.0493-.1214-.1097-.1582-.0603-.0369-.1959-.1895-.3011-.3392-.1802-.2562-.3403-.3505-.3556-.2094Zm-35.4882.335c-.1136.2601-.1105.356.0111.356.0761 0 .1192-.0908.1192-.2513 0-.2859-.038-.3163-.1303-.1047Zm-.4826-.0048c-.0818.0211-.127.0732-.1006.1159.0265.0425-.0775.08-.231.0832-.2328.005-.2512.018-.1106.0779.0929.0396.1191.0747.0584.0779-.0608.0032-.0854.0461-.0548.0953.0305.0491-.0237.1099-.1207.1351-.2447.0635-.136.1943.1614.1943.1673 0 .2772-.0594.346-.1867.0553-.1028.1516-.2374.2139-.2992.1208-.1199.1556-.3582.05-.342-.0349.0054-.1303.0271-.212.0483Zm-4.0439.1774c-.3937.1007-.745.4821-.745.8089 0 .2621.0299.298.3202.3843.5207.1548.7277.0867.777-.256.0809-.5619.9097-.7189 1.4004-.2653.1406.13.1845.1366.2748.0408.059-.0629.149-.0887.1998-.0575.056.0343.0682.0178.031-.0421-.0338-.0542-.315-.2137-.625-.3543-.5726-.2599-1.2247-.3631-1.6332-.2588Zm42.8946.0537c-.1523.182-.028.4647.2042.4647s.3035-.1377.2061-.3978c-.0807-.2155-.2614-.2449-.4103-.0669Zm1.0727.1481c-.174.1001-.3165.2123-.3165.2494 0 .0852.4943.0771.7175-.0119.2446-.0976.4418.038.51.3507.0847.388.3542.7336.5718.7332.1013-.0002.3076-.075.4585-.1663.2052-.1242.2743-.2255.2743-.4024 0-.282-.1122-.4447-.5017-.7276-.3935-.2857-1.2393-.2981-1.7139-.0251Zm-39.883.4023c-.0881.1401-.0853.1775.0168.2163.068.0259.1921.0073.2762-.0412.084-.0485.1054-.0893.0474-.0908-.058-.0013-.1055-.059-.1055-.1281 0-.1765-.109-.1562-.2348.0438Zm-1.9437.5186c-.148.1912-.2691.396-.2691.4553 0 .0593-.0499.0887-.1108.0655-.061-.0232-.1834.044-.2721.1493-.0887.1053-.1072.1443-.041.0867.066-.0576.1884-.1047.272-.1047.0835 0 .153.0471.1544.1047.0015.0576.0458.0293.0985-.0628.0528-.0922.223-.3228.3783-.5125.2271-.2775.2605-.3628.1706-.4368-.0864-.0712-.1729-.0132-.3808.2553Zm40.413.2034c0 .2078.2577.6287.3637.594.137-.0447.1772-.3801.062-.5178-.1425-.1704-.4257-.2211-.4257-.0762Zm-43.6334.1908c-.0015.0655-.0657.188-.1425.2722-.1317.1444-.128.1531.0633.1519.3607-.0023.4426-.1133.2517-.3409-.1093-.1303-.1707-.1598-.1725-.0832Zm1.778 1.7925c-.428.916-.5955 1.3132-.5538 1.3132.0238 0-.0173.1166-.0916.259-.0743.1425-.1197.2743-.1009.2929.0332.033.4425-.782.4425-.881 0-.0272.1465-.326.3254-.6639.179-.3379.2929-.6458.2532-.6841-.0396-.0384-.1633.1254-.2748.3639Zm10.0145 1.5288c-.2926.1573-.2905.1917.0182.2985.1699.0588.297.1918.396.4144.1525.3431.2867.4314.2755.1813-.0103-.2315-.2916-.9715-.3788-.9964-.0434-.0124-.1833.0336-.3109.1022Zm15.0264.0985c-.3588.4084-.3809.8848-.0448.9721.1325.0343.2564-.0452.5016-.3217.1791-.2019.4061-.3791.5043-.3936.1467-.0217.1147-.0602-.179-.215-.4303-.2267-.6111-.2363-.7821-.0418Zm-1.6793-.0254c-.0208.0206-.4914.0605-1.0458.0886-.5546.0282-1.0233.0663-1.0418.0846-.0186.0183-.0113.0915.0163.1627.041.1059.2222.1292 1.0064.1292.6313 0 .9908.0342 1.0576.1005.0788.0782.1013.0224.1013-.2513 0-.3415-.0152-.3925-.094-.3143Zm-7.6147.1022c-.031.0306-.0563.1249-.0563.2094 0 .1318.0715.1535.5064.1535.4389 0 .5064-.0209.5064-.157 0-.1089-.0809-.1732-.2638-.2094-.3426-.0681-.6222-.0666-.6927.0035Zm2.1381.3629c0 .3834.0214.3976.2532.1675.1451-.144.2814-.1675.9707-.1675.7455 0 .8018-.0117.8018-.1675 0-.1582-.0563-.1675-1.0128-.1675h-1.0129v.335Zm25.5852.4816c.0078.457.0267.5624.0638.356.0734-.4082.1699-.2165.2624.5217.042.335.1182.854.1693 1.1534.0512.2995.1617 1.0085.2456 1.5755.1939 1.3102.3661 1.5594.2975.4309-.0264-.4356-.0842-.9615-.1281-1.1688-.0441-.2073-.0975-.49-.119-.6282-.0914-.5908-.219-1.2655-.2614-1.382-.0251-.0691-.0428-.1352-.0393-.147.0035-.0117-.051-.1576-.1212-.3243-.0701-.1666-.1275-.4083-.1275-.5371 0-.2851-.0763-.4992-.1779-.4992-.0414 0-.0704.292-.0642.6491ZM4.5202 51.6241c0 .2204.2067.4458.2885.3144.067-.1077-.0925-.5136-.202-.5136-.0476 0-.0865.0896-.0865.1992Zm40.9659.764c-.0268.0691-.1016.1257-.1662.1257-.0647 0-.1176.0708-.1176.1573 0 .0864-.057.2041-.1266.2615-.0696.0573-.1266.1438-.1266.1921 0 .0483-.0515.1473-.1144.22-.0629.0728-.2658.415-.451.7605-.3859.7203-.713 1.2793-.7844 1.3401-.027.0231-.1701.2304-.3181.4607-.3047.4745-.3003.4685-.6792.9221-.584.6994-.9949 1.1611-1.2189 1.3698-.1277.1189-.2321.2482-.2321.2873 0 .0967-.1748.2629-.4051.3852-.1047.0557-.1682.137-.1409.1807.0272.0438-.0053.0796-.0724.0796-.067 0-.1824.0918-.2565.2041-.0742.1122-.24.2561-.3685.3196-.1285.0636-.2232.163-.2105.221.0128.0579-.0183.0799-.0689.0488-.0507-.0311-.2.0451-.3317.1693-.1318.1241-.3364.3163-.4548.4271-.1183.1109-.2603.2015-.3154.2015-.1523 0-1.0432.783-.9325.8196.1232.0408.1271.2692.0045.2692-.0507 0-.1888.0754-.3068.1676-.1527.1192-.176.1675-.0809.1675.0736 0 .1642-.0471.2013-.1047.0372-.0576.2517-.1989.4767-.3141.2251-.1152.4625-.2838.5276-.3747.065-.0908.1183-.1396.1183-.1083 0 .0313.2833-.1448.6296-.3914.9215-.656 1.0584-.7714 1.0584-.8911 0-.0595.3134-.4312.6964-.8258 1.1155-1.1498 1.9525-2.1603 2.7015-3.262.2357-.3465.5116-.7072.6132-.8016.1016-.0943.3787-.5382.6159-.9865.2372-.4482.488-.901.5576-1.0063.0694-.1053.1439-.3322.1654-.5042.0402-.3214-.0005-.4095-.0864-.1872Zm-40.5326.154c-.1178.141.8552 2.0863 1.452 2.9032.219.2995.5555.7706.7479 1.047.8673 1.2456 1.4369 1.9106 2.5365 2.9618.3133.2995.5697.597.5697.661 0 .1487.1086.254.6541.6343.3134.2185.4431.272.4431.1827 0-.1622.2046-.1625.3678-.0006.0696.0691.1672.1256.217.1256.0498 0 .0904.0294.0904.0654 0 .036.1226.1113.2723.1674l.2723.102-.3296-.2696c-.1812-.1483-.4342-.346-.5624-.4396-.128-.0934-.4725-.3696-.7656-.6136-.293-.244-.6165-.5128-.7187-.5974-.1022-.0845-.1981-.1415-.213-.1266-.0151.0149-.3263-.2718-.6918-.6371-1.2738-1.2734-2.8557-3.6065-3.8246-5.6406-.167-.3505-.3306-.6374-.3636-.6374-.033 0-.1022.0504-.1538.1121Zm19.9307 1.8334c-.0469.0586-.1311.2474-.1869.4195-.1347.415-.1975.4388-.4966.1891-.5185-.433-1.129-.5623-1.7084-.3619l-.284.0983.588.1173c.3233.0645.6006.1522.616.1948.0155.0428.0766.0777.1359.0777.1705 0 .6693.5087.9274.9458.1297.2197.3216.652.4264.9607l.1904.5613.064-.2889c.0834-.3769.2157-.5806.3451-.5312.0664.0252.1541-.1319.2428-.4347.1023-.3495.2366-.5684.5099-.8321.493-.4755.8991-.6613 1.5611-.7146l.5487-.0441-.2701-.1462c-.512-.2769-1.2445-.1577-1.8331.2983l-.3307.2562-.1335-.1879c-.412-.5797-.7429-.7892-.9124-.5774Zm-1.3181 2.3956c-.1919.2104-.1811.2382.1536.3959.1614.0759.4652.2883.6752.4717.2209.193.3819.2845.3819.2173 0-.1541-.4363-.8318-.6814-1.0584-.2377-.2196-.3481-.2252-.5293-.0265Zm2.6228.1143c-.2444.326-.6524 1.0187-.6524 1.1074 0 .034.1607-.0945.3572-.2855.1965-.1911.4614-.3682.5889-.3935.293-.0581.4249-.2143.3897-.4609-.0462-.3234-.4304-.3052-.6834.0325Zm-13.3401.4942c-.3482.0946-.614.4241-.7303.9051-.09.3721-.0835.4613.0533.7393.2063.4189.692.6693 1.0295.5306.4858-.1997.6458-.892.2541-1.1001-.23-.1221-.3334-.0233-.3116.2979.033.4858-.3394.7162-.6345.3926-.3336-.3658.0154-1.2995.5106-1.3659.3608-.0484.5575.001.8149.2046.1988.1573.2427.2671.283.7084.0262.2873.0771.5223.113.5223.098 0 .1866-.6352.1194-.855-.1986-.6482-.9405-1.1323-1.5014-.9798Zm23.9132.0469c-.2219.0882-.5159.3949-.7382.77-.1776.2996-.1949.3771-.0975.4372.0839.0519.1306.0249.1605-.0924.0232-.0912.1483-.2973.278-.4582.2084-.2588.2809-.2925.6283-.2925.3112 0 .4419.0467.6294.225.4862.4623.1028 1.3907-.4823 1.1679-.0922-.0351-.122-.1473-.1056-.3978.0271-.4133-.0993-.4965-.3495-.23-.204.2173-.2244.5467-.0482.7778.1932.2533.9343.2097 1.196-.0704.4859-.52.4636-1.2135-.054-1.6783-.1697-.1524-.7891-.2489-1.0169-.1583Zm-18.6504.5529c-1.1666.3881-1.9401 1.5683-1.9428 2.9642-.0011.5522.2847 1.6212.4334 1.6212.0528 0 .0647-.0606.0288-.1466-.1204-.2881-.1457-1.3477-.0429-1.7921.1377-.5951.6891-1.5173 1.08-1.8065.1729-.1278.3333-.2514.3565-.2747.0232-.0233.2237-.1273.4454-.2309.3058-.1429.5556-.1884 1.034-.1884.3642 0 .6307-.0354.6307-.0838 0-.046-.0284-.0769-.0633-.0685-.0349.0084-.2152-.0291-.4009-.0832-.4889-.1428-.9389-.117-1.5589.0893Zm12.4715-.0276c-.6029.0836-.5609.1471.1262.191 1.7768.1131 2.9083 1.5645 2.8323 3.633-.016.434-.0214.7891-.0119.7891.0094-.0001.0854-.1414.1688-.3142.1163-.2408.1516-.5194.1516-1.1936-.0002-1.171-.2132-1.7564-.8819-2.4239-.6884-.6872-1.2291-.8416-2.3851-.6814Zm-6.7356.446c-.092.1498-.1674.3055-.1676.3461-.0004.0989.3162.6108.602.9731.1272.1612.3255.4816.4408.7119.235.4699.4811 1.627.4275 2.0102-.033.237-.0309.2392.0374.0371.0398-.118.1153-.294.1677-.3912.072-.1333.0709-.1849-.0046-.2099-.0742-.0245-.0598-.2046.0556-.6977.1931-.8244.5328-1.5819.8745-1.9502.3311-.3569.368-.4848.2325-.8066-.1007-.2392-.1699-.3011-.3133-.2801-.2062.0302-.8171.8417-.6702.8903.2607.0862-.1404.6862-.4587.6862-.1194 0-.7163-.6924-.7163-.8307 0-.1213.1947-.1153.3208.0099.0787.0781.1009.0642.0999-.0629-.0017-.2081-.4414-.7077-.6229-.7077-.0759 0-.2131.1224-.3051.2722ZM10.766 60.393c0 .116.2147.3291.3316.3291.128 0 .1121-.158-.0302-.2991-.1422-.1412-.3014-.157-.3014-.03Zm10.3799.3081c-.354.3167-.4129.7318-.1735 1.2225.1419.2909.2605.4056.53.5126.3125.124.3601.125.477.009s.1027-.1383-.1418-.2228c-.3205-.1109-.4369-.2944-.4369-.6889 0-.3564.1735-.5145.4848-.4417.435.1016.4855.093.5115-.0879.0184-.1279-.0564-.2291-.2631-.3559-.3893-.2387-.6791-.2232-.988.0531Zm6.7876.0545c-.4325.4292-.3782.7005.0648.324.2327-.1979.5169-.097.7033.2496.1554.2889.1585.3322.0393.5444-.0714.1272-.2529.2705-.4051.3199l-.2757.0893.2192.0991c.2992.1353.387.1226.6436-.0924.3035-.2543.4117-.4902.4117-.8973 0-.4331-.1061-.6336-.4203-.7949-.393-.2016-.6617-.1583-.9808.1583Zm-16.2813.52c.429.3545 1.2675.8783 2.4266 1.5156.0349.0191.0633.0193.0633.0006 0-.0188-.4748-.326-1.055-.6828-.5803-.3566-1.0551-.6827-1.0551-.7245 0-.0418-.0569-.0761-.1266-.0761-.0696 0-.1266-.0333-.1266-.074 0-.0407-.0854-.0952-.1899-.1211-.1668-.0414-.1591-.0216.0633.1623Zm11.8261.7418c-.0749.1135-.1363.2856-.1363.3825 0 .0967-.0393.2488-.0874.3379-.0481.0891-.0649.162-.0374.162.0274 0 .1255-.1696.2179-.3769.1978-.4437.329-.4855.3286-.1047-.0004.3101-.2675.7954-.4831.8774-.2164.0825-.625.5237-.5686.6142.1354.2174.8752.0281 1.24-.3172.4634-.4388.4804-1.1138.0402-1.5932-.2225-.2421-.345-.2379-.5139.018Zm2.4955.0924c-.2189.2461-.2154.6653.0097 1.1532.2502.5423.5344.7257 1.125.7257h.3987l-.2025-.2139c-.1113-.1176-.2983-.2592-.4156-.3147-.1864-.0883-.2258-.185-.3132-.7704-.055-.3682-.1025-.6787-.1055-.6903-.0203-.0772-.4059.0085-.4966.1104Zm-.9674 1.0696c-.0248.1519-.1576.5224-.2951.8233-.2813.6156-.6712.9707-1.1507 1.0479-.4002.0645-.9203-.2631-1.0701-.6739-.0662-.1818-.1466-.2725-.2175-.2455-.19.0723-.1266.3178.1872.7256.4307.5598 1.1017.7909 1.5837.5457.2122-.108.7329-.5814.7329-.6662 0-.0314.0615-.203.1366-.3814l.1365-.3243.1651.4187c.2847.7223.7117 1.047 1.3765 1.047.674 0 1.1785-.4117 1.2823-1.0461.0628-.3845-.1159-.3959-.1885-.0121-.0427.2258-.125.3175-.414.4607-.4309.2135-.6445.223-1.0215.0455-.4814-.2266-1.0509-1.1737-1.0509-1.7473 0-.3145-.1418-.3274-.1925-.0176Z" clip-rule="evenodd"/></svg>